<svg id="图层_1" data-name="图层 1" xmlns="http://www.w3.org/2000/svg" viewBox="0 0 1175.06 547.02"><defs><style>.cls-1{font-size:24.28px;}.cls-1,.cls-3,.cls-7{font-family:SimHei;}.cls-2,.cls-4,.cls-5,.cls-6,.cls-7,.cls-8{fill:none;}.cls-2,.cls-4,.cls-5,.cls-6,.cls-8{stroke:#000;stroke-linecap:round;stroke-linejoin:round;stroke-width:4px;}.cls-3,.cls-7{font-size:24.27px;}.cls-4{stroke-dasharray:12.32 12.32;}.cls-5{stroke-dasharray:12.23 12.23;}.cls-6{stroke-dasharray:12.22 12.22;}.cls-7{stroke:#fff;stroke-width:27px;}.cls-8{stroke-dasharray:12.55 12.55;}</style></defs><text class="cls-1" transform="translate(0.23 49.99)">Entry</text><line class="cls-2" x1="79.68" y1="40.05" x2="131.39" y2="40.05"/><polygon points="107.75 52.77 106.38 49.01 131 40.05 106.38 31.09 107.75 27.33 142.69 40.05 107.75 52.77"/><text class="cls-1" transform="translate(159.23 51.08)">Rearrange</text><line class="cls-2" x1="288.95" y1="39.66" x2="346.97" y2="39.78"/><polygon points="323.3 52.45 321.94 48.69 346.58 39.77 321.98 30.77 323.35 27.01 358.28 39.8 323.3 52.45"/><text class="cls-3" transform="translate(378.17 20.86)">Collect variables <tspan x="0" y="29.13">that rearrangement </tspan><tspan x="0" y="58.26">uses</tspan></text><line class="cls-2" x1="617.02" y1="39.52" x2="675.04" y2="39.64"/><polygon points="651.37 52.31 650.01 48.55 674.65 39.64 650.05 30.63 651.42 26.87 686.35 39.66 651.37 52.31"/><text class="cls-3" transform="translate(712.56 46.31)">Redraw</text><polyline class="cls-2" points="813.06 38 1050.22 37.8 1050.22 126.79"/><polygon points="1037.49 103.14 1041.26 101.78 1050.22 126.4 1059.18 101.78 1062.93 103.14 1050.22 138.09 1037.49 103.14"/><text class="cls-3" transform="translate(950.52 166.5)">Collect variables <tspan x="0" y="29.13">that redraw uses</tspan></text><line class="cls-2" x1="1050.22" y1="216.89" x2="1050.92" y2="305.08"/><polygon points="1038.01 281.54 1041.76 280.14 1050.92 304.69 1059.68 280 1063.45 281.34 1051.01 316.38 1038.01 281.54"/><text class="cls-3" transform="translate(937.06 349.2)">Set event listeners</text><line class="cls-2" x1="750.39" y1="79.35" x2="750.4" y2="85.35"/><line class="cls-4" x1="750.43" y1="97.66" x2="751.03" y2="337.84"/><polyline class="cls-2" points="751.04 344 751.06 350 745.06 350"/><line class="cls-5" x1="732.83" y1="350" x2="225.17" y2="350"/><polyline class="cls-2" points="219.06 350 213.06 350 213.19 344"/><line class="cls-6" x1="213.44" y1="331.78" x2="218.49" y2="93.45"/><line class="cls-2" x1="218.62" y1="87.34" x2="218.74" y2="81.34"/><polygon points="737.72 103.02 741.49 104.38 750.39 79.74 759.41 104.34 763.16 102.96 750.36 68.05 737.72 103.02"/><polygon points="230.96 105.25 227.17 106.54 218.74 81.74 209.25 106.16 205.53 104.72 218.98 70.05 230.96 105.25"/><text class="cls-7" transform="translate(119.49 209.9)">Variables changed</text><text class="cls-3" transform="translate(119.49 209.9)">Variables changed</text><text class="cls-7" transform="translate(639.5 206.84)">Variables changed</text><text class="cls-3" transform="translate(639.5 206.84)">Variables changed</text><text class="cls-1" transform="translate(0 537.96)">Event incoming</text><line class="cls-2" x1="187.56" y1="525.5" x2="288.75" y2="525.05"/><polygon points="265.17 537.88 263.78 534.12 288.36 525.05 263.7 516.2 265.05 512.44 300.06 525 265.17 537.88"/><text class="cls-3" transform="translate(325.42 533.22)">Execute the events callbacks</text><line class="cls-2" x1="488.06" y1="500" x2="488.06" y2="494"/><line class="cls-8" x1="488.06" y1="481.45" x2="488.06" y2="362.27"/><line class="cls-2" x1="488.06" y1="356" x2="488.06" y2="350"/></svg>